<?xml version="1.0" standalone="no"?>
<!DOCTYPE svg PUBLIC "-//W3C//DTD SVG 20010904//EN"
 "http://www.w3.org/TR/2001/REC-SVG-20010904/DTD/svg10.dtd">
<svg version="1.0" xmlns="http://www.w3.org/2000/svg"
 width="400.000000pt" height="155.000000pt" viewBox="0 0 400.000000 155.000000"
 preserveAspectRatio="xMidYMid meet">

<g transform="translate(0.000000,155.000000) scale(0.100000,-0.100000)"
fill="#000000" stroke="none">
<path d="M145 1521 c-142 -34 -178 -228 -56 -303 65 -40 202 -20 219 32 3 8
-9 2 -27 -13 -25 -20 -43 -27 -77 -27 -73 0 -104 46 -104 151 0 96 39 149 111
149 41 0 71 -21 94 -65 l15 -30 0 60 c0 39 -3 55 -9 46 -8 -12 -19 -12 -67 -3
-31 7 -60 12 -63 11 -3 -1 -20 -4 -36 -8z"/>
<path d="M454 1511 c-110 -50 -121 -228 -19 -291 100 -60 218 -12 245 100 20
85 -12 158 -84 191 -52 23 -90 24 -142 0z m126 -33 c27 -44 28 -177 2 -228
-15 -31 -21 -35 -57 -35 -36 0 -42 4 -57 35 -20 40 -25 161 -8 207 24 62 88
73 120 21z"/>
<path d="M1215 1521 c-142 -34 -178 -228 -56 -303 65 -40 202 -20 219 32 3 8
-9 2 -27 -13 -25 -20 -43 -27 -77 -27 -73 0 -104 46 -104 151 0 96 39 149 111
149 41 0 71 -21 94 -65 l15 -30 0 60 c0 39 -3 55 -9 46 -8 -12 -19 -12 -67 -3
-31 7 -60 12 -63 11 -3 -1 -20 -4 -36 -8z"/>
<path d="M2510 1387 c-35 -78 -73 -152 -84 -164 l-19 -23 49 1 c39 0 45 2 27
9 -26 10 -28 27 -11 65 10 23 17 25 69 25 55 0 57 -1 68 -31 15 -44 14 -57 -6
-62 -10 -3 17 -5 61 -6 76 -1 78 0 58 17 -11 9 -48 82 -82 162 -33 79 -62 146
-64 147 -1 2 -31 -61 -66 -140z m54 -10 c9 -23 16 -46 16 -50 0 -4 -20 -7 -44
-7 l-45 0 22 50 c12 27 25 50 28 50 4 0 14 -19 23 -43z"/>
<path d="M3374 1511 c-110 -50 -121 -228 -19 -291 100 -60 218 -12 245 100 20
85 -12 158 -84 191 -52 23 -90 24 -142 0z m126 -33 c27 -44 28 -177 2 -228
-15 -31 -21 -35 -57 -35 -36 0 -42 4 -57 35 -20 40 -25 161 -8 207 24 62 88
73 120 21z"/>
<path d="M738 1504 c21 -14 22 -22 22 -150 0 -130 -1 -135 -22 -144 -18 -7
-11 -9 32 -9 43 0 50 2 33 9 -22 9 -23 14 -23 132 1 99 3 120 13 107 7 -9 57
-71 112 -138 l100 -122 5 157 c5 145 6 158 25 165 13 5 2 8 -35 8 -43 0 -50
-2 -32 -9 20 -9 22 -16 22 -95 0 -48 -4 -84 -9 -81 -5 3 -41 46 -81 96 l-73
90 -56 0 c-53 0 -54 -1 -33 -16z"/>
<path d="M1448 1513 c22 -4 22 -7 22 -153 0 -146 0 -149 -22 -153 -13 -2 36
-5 108 -6 140 -1 144 0 144 49 0 17 -3 17 -26 -5 -21 -20 -38 -25 -75 -25
l-49 0 0 65 c0 49 3 65 14 65 18 0 35 -22 46 -57 6 -20 8 0 8 67 0 67 -2 87
-8 67 -11 -35 -28 -57 -46 -57 -11 0 -14 16 -14 65 l0 65 43 0 c47 0 68 -15
86 -60 8 -21 10 -17 10 28 l1 52 -132 -1 c-73 -1 -123 -4 -110 -6z"/>
<path d="M1758 1510 c21 -9 22 -14 22 -150 0 -137 -1 -141 -22 -150 -17 -6 1
-9 62 -9 61 0 79 3 63 9 -21 8 -23 16 -23 75 0 45 4 65 13 65 6 0 33 -34 60
-75 l48 -75 52 1 c28 0 46 3 39 6 -8 3 -36 40 -62 82 -45 69 -47 77 -30 83 30
11 52 52 44 83 -12 47 -44 58 -173 62 -82 2 -109 0 -93 -7z m176 -26 c9 -8 16
-31 16 -49 0 -41 -22 -65 -61 -65 l-29 0 0 65 0 65 29 0 c16 0 37 -7 45 -16z"/>
<path d="M2090 1473 l0 -48 18 35 c14 29 23 35 55 38 l37 3 0 -145 c0 -142 0
-145 -22 -149 -13 -2 15 -4 62 -4 47 0 75 2 63 4 -23 4 -23 7 -23 149 l0 145
38 -3 c31 -3 40 -9 54 -38 l18 -35 0 48 0 47 -150 0 -150 0 0 -47z"/>
<path d="M2760 1473 l0 -48 18 35 c14 29 23 35 55 38 l37 3 0 -145 c0 -142 0
-145 -22 -149 -13 -2 15 -4 62 -4 47 0 75 2 63 4 -23 4 -23 7 -23 149 l0 145
38 -3 c31 -3 40 -9 54 -38 l18 -35 0 48 0 47 -150 0 -150 0 0 -47z"/>
<path d="M3108 1513 c22 -4 22 -7 22 -153 0 -146 0 -149 -22 -153 -13 -2 15
-4 62 -4 47 0 75 2 63 4 -23 4 -23 7 -23 153 0 146 0 149 23 153 12 2 -16 4
-63 4 -47 0 -75 -2 -62 -4z"/>
<path d="M3658 1504 c21 -14 22 -22 22 -150 0 -130 -1 -135 -22 -144 -18 -7
-11 -9 32 -9 43 0 50 2 33 9 -22 9 -23 14 -23 132 1 99 3 120 13 107 7 -9 57
-71 112 -138 l100 -122 5 157 c5 145 6 158 25 165 13 5 2 8 -35 8 -43 0 -50
-2 -32 -9 20 -9 22 -16 22 -95 0 -48 -4 -84 -9 -81 -5 3 -41 46 -81 96 l-73
90 -56 0 c-53 0 -54 -1 -33 -16z"/>
<path d="M401 784 c2 -5 17 -40 33 -76 l28 -67 -31 -67 c-17 -37 -30 -68 -28
-70 2 -2 34 27 71 65 57 58 66 71 58 87 -12 22 -136 144 -131 128z"/>
<path d="M553 780 c3 -8 17 -44 33 -78 l27 -64 -32 -65 c-17 -36 -30 -67 -28
-69 2 -2 34 27 71 65 57 58 66 71 58 87 -14 26 -136 143 -129 124z"/>
<path d="M881 784 c2 -5 17 -40 33 -76 l28 -67 -31 -67 c-17 -37 -30 -68 -28
-70 2 -2 34 27 71 65 57 58 66 71 58 87 -12 22 -136 144 -131 128z"/>
<path d="M1033 780 c3 -8 17 -44 33 -78 l27 -64 -32 -65 c-17 -36 -30 -67 -28
-69 2 -2 34 27 71 65 57 58 66 71 58 87 -14 26 -136 143 -129 124z"/>
<path d="M1361 784 c2 -5 17 -40 33 -76 l28 -67 -31 -67 c-17 -37 -30 -68 -28
-70 2 -2 34 27 71 65 57 58 66 71 58 87 -12 22 -136 144 -131 128z"/>
<path d="M1513 780 c3 -8 17 -44 33 -78 l27 -64 -32 -65 c-17 -36 -30 -67 -28
-69 2 -2 34 27 71 65 57 58 66 71 58 87 -14 26 -136 143 -129 124z"/>
<path d="M1841 784 c2 -5 17 -40 33 -76 l28 -67 -31 -67 c-17 -37 -30 -68 -28
-70 2 -2 34 27 71 65 57 58 66 71 58 87 -12 22 -136 144 -131 128z"/>
<path d="M1993 780 c3 -8 17 -44 33 -78 l27 -64 -32 -65 c-17 -36 -30 -67 -28
-69 2 -2 34 27 71 65 57 58 66 71 58 87 -14 26 -136 143 -129 124z"/>
<path d="M2321 784 c2 -5 17 -40 33 -76 l28 -67 -31 -67 c-17 -37 -30 -68 -28
-70 2 -2 34 27 71 65 57 58 66 71 58 87 -12 22 -136 144 -131 128z"/>
<path d="M2473 780 c3 -8 17 -44 33 -78 l27 -64 -32 -65 c-17 -36 -30 -67 -28
-69 2 -2 34 27 71 65 57 58 66 71 58 87 -14 26 -136 143 -129 124z"/>
<path d="M2801 784 c2 -5 17 -40 33 -76 l28 -67 -31 -67 c-17 -37 -30 -68 -28
-70 2 -2 34 27 71 65 57 58 66 71 58 87 -12 22 -136 144 -131 128z"/>
<path d="M2953 780 c3 -8 17 -44 33 -78 l27 -64 -32 -65 c-17 -36 -30 -67 -28
-69 2 -2 34 27 71 65 57 58 66 71 58 87 -14 26 -136 143 -129 124z"/>
<path d="M3281 784 c2 -5 17 -40 33 -76 l28 -67 -31 -67 c-17 -37 -30 -68 -28
-70 2 -2 34 27 71 65 57 58 66 71 58 87 -12 22 -136 144 -131 128z"/>
<path d="M3433 780 c3 -8 17 -44 33 -78 l27 -64 -32 -65 c-17 -36 -30 -67 -28
-69 2 -2 34 27 71 65 57 58 66 71 58 87 -14 26 -136 143 -129 124z"/>
<path d="M374 233 c-8 -22 -5 -39 13 -81 13 -29 23 -54 23 -57 0 -2 -24 -6
-52 -8 l-53 -3 56 -2 c41 -1 59 -6 63 -18 10 -25 7 -32 -11 -37 -10 -3 25 -5
77 -6 l95 -1 -2 72 c-1 40 -2 76 -3 81 0 4 -17 7 -37 6 -21 0 -32 -3 -25 -6 8
-3 12 -28 12 -74 0 -61 -2 -69 -19 -69 -25 0 -32 11 -76 120 -21 52 -41 98
-45 103 -3 4 -11 -5 -16 -20z"/>
<path d="M1528 253 c22 -4 23 -7 20 -111 -3 -103 -4 -106 -28 -114 -19 -6 -16
-6 10 -3 56 9 65 24 68 130 3 77 7 95 20 98 10 3 -12 5 -48 4 -36 0 -55 -2
-42 -4z"/>
<path d="M2111 246 c-9 -10 -8 -16 3 -25 10 -9 16 -8 25 3 9 10 8 16 -3 25
-10 9 -16 8 -25 -3z"/>
<path d="M2610 228 l0 -33 13 25 c8 16 23 26 40 28 l27 3 0 -110 c0 -96 -2
-110 -17 -114 -10 -3 9 -5 42 -5 33 0 52 2 43 5 -16 4 -18 18 -18 114 l0 110
27 -3 c17 -2 32 -12 40 -28 l13 -25 0 33 0 32 -105 0 -105 0 0 -32z"/>
<path d="M3561 246 c-9 -10 -8 -16 3 -25 10 -9 16 -8 25 3 9 10 8 16 -3 25
-10 9 -16 8 -25 -3z"/>
<path d="M3628 253 c8 -3 12 -36 12 -114 0 -102 -1 -109 -20 -109 -18 0 -20 7
-20 75 l0 75 -37 -1 c-21 0 -32 -3 -25 -6 8 -3 12 -28 12 -73 0 -45 -4 -70
-12 -73 -7 -3 30 -5 82 -5 52 0 89 2 83 5 -9 3 -13 37 -13 119 l0 114 -37 -1
c-21 0 -32 -3 -25 -6z"/>
<path d="M2027 223 c-5 -12 -20 -32 -34 -43 -14 -11 -21 -20 -14 -20 7 0 11
-20 11 -54 0 -37 5 -60 16 -71 28 -28 38 -12 35 58 -2 54 1 67 12 67 9 0 22 3
31 6 14 5 16 -4 16 -64 0 -47 -4 -72 -12 -75 -7 -3 10 -5 37 -5 28 0 44 2 38
5 -9 3 -13 29 -13 79 l0 74 -54 0 c-54 0 -55 0 -58 33 -3 29 -4 30 -11 10z"/>
<path d="M610 170 c-13 -8 -12 -10 3 -10 17 0 18 -8 15 -70 l-3 -70 30 0 30 0
0 69 c0 38 -2 68 -4 66 -2 -2 -10 2 -18 10 -17 17 -32 19 -53 5z"/>
<path d="M710 170 c-13 -8 -12 -10 3 -10 17 0 18 -8 15 -70 l-3 -70 40 1 c22
0 34 3 28 6 -8 3 -13 24 -13 57 0 75 -30 112 -70 86z"/>
<path d="M839 151 c-32 -32 -35 -47 -18 -85 27 -58 115 -55 139 5 16 37 -1 82
-36 98 -38 17 -53 14 -85 -18z m76 -51 c0 -63 -1 -65 -25 -65 -23 0 -25 4 -28
54 -4 68 2 83 30 79 21 -3 23 -8 23 -68z"/>
<path d="M988 173 c7 -3 12 -25 12 -58 0 -36 6 -60 18 -75 17 -21 22 -22 50
-12 19 6 32 7 32 1 0 -5 17 -9 38 -8 20 0 31 3 25 6 -9 3 -13 29 -13 79 l0 74
-37 0 c-24 0 -33 -3 -25 -9 9 -5 12 -26 10 -67 -3 -52 -5 -59 -25 -62 -22 -3
-23 0 -23 67 l0 71 -37 -1 c-21 0 -32 -3 -25 -6z"/>
<path d="M1188 173 c8 -3 12 -28 12 -73 0 -45 -4 -70 -12 -73 -7 -3 10 -5 37
-5 28 0 44 2 38 5 -9 3 -13 29 -13 79 l0 74 -37 -1 c-21 0 -32 -3 -25 -6z"/>
<path d="M1280 170 c-10 -6 -11 -10 -2 -10 6 0 12 -7 12 -16 0 -9 6 -14 13
-11 14 4 16 39 2 44 -5 1 -17 -2 -25 -7z"/>
<path d="M1638 173 c7 -3 12 -25 12 -58 0 -36 6 -60 18 -75 17 -21 22 -22 50
-12 19 6 32 7 32 1 0 -5 17 -9 38 -8 20 0 31 3 25 6 -9 3 -13 29 -13 79 l0 74
-37 0 c-24 0 -33 -3 -25 -9 9 -5 12 -26 10 -67 -3 -52 -5 -59 -25 -62 -22 -3
-23 0 -23 67 l0 71 -37 -1 c-21 0 -32 -3 -25 -6z"/>
<path d="M1878 173 c7 -3 16 -2 19 1 4 3 -2 6 -13 5 -11 0 -14 -3 -6 -6z"/>
<path d="M1923 172 c-10 -6 -10 -12 2 -28 14 -18 14 -18 15 9 0 30 0 30 -17
19z"/>
<path d="M2218 161 c-31 -25 -42 -60 -28 -95 12 -32 56 -51 85 -37 20 9 20 10
-2 10 -28 1 -43 29 -43 81 0 50 22 63 49 29 16 -19 22 -22 32 -11 17 16 3 30
-36 38 -22 4 -38 0 -57 -15z"/>
<path d="M2368 150 c-25 -26 -29 -36 -24 -63 10 -52 58 -81 96 -57 12 8 11 10
-7 10 -21 0 -43 25 -43 49 0 6 20 11 46 11 42 0 45 1 39 23 -8 26 -41 57 -62
57 -8 0 -28 -14 -45 -30z m60 -13 c3 -22 -1 -27 -17 -27 -15 0 -21 6 -21 23 0
46 33 49 38 4z"/>
<path d="M2858 173 c8 -3 12 -28 12 -73 0 -45 -4 -70 -12 -73 -7 -3 10 -5 37
-5 28 0 44 2 38 5 -9 3 -13 29 -13 79 l0 74 -37 -1 c-21 0 -32 -3 -25 -6z"/>
<path d="M2950 170 c-10 -6 -11 -10 -2 -10 6 0 12 -7 12 -16 0 -9 6 -14 13
-11 14 4 16 39 2 44 -5 1 -17 -2 -25 -7z"/>
<path d="M3083 173 c14 -4 17 -16 17 -68 0 -64 14 -91 41 -80 10 4 13 21 11
65 -4 64 -24 91 -67 89 -17 -1 -17 -2 -2 -6z"/>
<path d="M3193 162 c10 -10 17 -21 17 -24 0 -3 12 -32 27 -64 l27 -59 12 30
c10 25 9 35 -8 68 -11 22 -17 45 -14 53 4 11 -5 14 -36 14 -39 0 -40 -1 -25
-18z"/>
<path d="M3312 166 c7 -8 15 -11 18 -7 3 3 9 9 14 14 5 4 -3 7 -18 7 -22 0
-25 -2 -14 -14z"/>
<path d="M3433 173 c14 -4 17 -16 17 -68 0 -64 14 -91 41 -80 10 4 13 21 11
65 -4 64 -24 91 -67 89 -17 -1 -17 -2 -2 -6z"/>
<path d="M1841 156 c-18 -22 -8 -43 35 -68 20 -11 39 -30 43 -42 8 -20 8 -20
20 2 15 29 1 55 -40 72 -17 7 -34 22 -38 32 -6 18 -8 18 -20 4z"/>
<path d="M3029 154 c-10 -13 -10 -17 2 -25 15 -9 31 -8 30 4 -1 4 -1 14 -1 22
0 19 -14 19 -31 -1z"/>
<path d="M3379 154 c-10 -13 -10 -17 2 -25 15 -9 31 -8 30 4 -1 4 -1 14 -1 22
0 19 -14 19 -31 -1z"/>
<path d="M3045 85 c-29 -28 -31 -38 -10 -55 24 -20 37 -7 39 38 1 23 1 42 -1
42 -2 0 -15 -11 -28 -25z"/>
<path d="M3395 85 c-29 -28 -31 -38 -10 -55 24 -20 37 -7 39 38 1 23 1 42 -1
42 -2 0 -15 -11 -28 -25z"/>
<path d="M1460 85 c-11 -13 -10 -19 6 -36 l18 -20 8 22 c12 31 -13 57 -32 34z"/>
<path d="M1830 46 c0 -19 4 -23 19 -19 18 5 18 6 3 24 -21 24 -22 24 -22 -5z"/>
<path d="M276 34 c-18 -13 -17 -14 20 -13 21 0 32 3 24 6 -8 3 -17 9 -20 14
-3 4 -14 1 -24 -7z"/>
<path d="M1888 23 c7 -3 16 -2 19 1 4 3 -2 6 -13 5 -11 0 -14 -3 -6 -6z"/>
</g>
</svg>
